<svg width="35" height="35" viewBox="0 0 35 35" fill="none" xmlns="http://www.w3.org/2000/svg">
<path id="Vector" d="M17.5 3.15438C22.1725 3.15438 22.7267 3.17188 24.5729 3.25646C29.3154 3.47229 31.5306 5.7225 31.7465 10.43C31.831 12.2748 31.8471 12.829 31.8471 17.5015C31.8471 22.1754 31.8296 22.7281 31.7465 24.5729C31.5292 29.276 29.3198 31.5306 24.5729 31.7465C22.7267 31.831 22.1754 31.8485 17.5 31.8485C12.8275 31.8485 12.2733 31.831 10.4285 31.7465C5.67438 31.5292 3.47083 29.2688 3.255 24.5715C3.17042 22.7267 3.15292 22.174 3.15292 17.5C3.15292 12.8275 3.17188 12.2748 3.255 10.4285C3.47229 5.7225 5.68167 3.47083 10.4285 3.255C12.2748 3.17188 12.8275 3.15438 17.5 3.15438ZM17.5 0C12.7473 0 12.1523 0.0204167 10.2856 0.105C3.93021 0.396667 0.398125 3.92292 0.106458 10.2842C0.0204167 12.1523 0 12.7473 0 17.5C0 22.2527 0.0204167 22.8492 0.105 24.7158C0.396667 31.0713 3.92292 34.6033 10.2842 34.895C12.1523 34.9796 12.7473 35 17.5 35C22.2527 35 22.8492 34.9796 24.7158 34.895C31.0654 34.6033 34.6063 31.0771 34.8935 24.7158C34.9796 22.8492 35 22.2527 35 17.5C35 12.7473 34.9796 12.1523 34.895 10.2856C34.6092 3.93604 31.0785 0.398125 24.7173 0.106458C22.8492 0.0204167 22.2527 0 17.5 0ZM17.5 8.51375C12.5373 8.51375 8.51375 12.5373 8.51375 17.5C8.51375 22.4627 12.5373 26.4877 17.5 26.4877C22.4627 26.4877 26.4863 22.4642 26.4863 17.5C26.4863 12.5373 22.4627 8.51375 17.5 8.51375ZM17.5 23.3333C14.2785 23.3333 11.6667 20.7229 11.6667 17.5C11.6667 14.2785 14.2785 11.6667 17.5 11.6667C20.7215 11.6667 23.3333 14.2785 23.3333 17.5C23.3333 20.7229 20.7215 23.3333 17.5 23.3333ZM26.8421 6.05938C25.6813 6.05938 24.7406 7 24.7406 8.15938C24.7406 9.31875 25.6813 10.2594 26.8421 10.2594C28.0015 10.2594 28.9406 9.31875 28.9406 8.15938C28.9406 7 28.0015 6.05938 26.8421 6.05938Z" fill="white"/>
</svg>
