<svg width="27" height="25" viewBox="0 0 27 25" fill="none" xmlns="http://www.w3.org/2000/svg">
<path id="Vector" d="M18.4494 18.7887C16.5558 20.3363 14.1166 21.27 11.4573 21.27C5.44332 21.27 0.5625 16.505 0.5625 10.635C0.5625 4.765 5.44332 0 11.4573 0C17.4687 0 22.3508 4.765 22.3508 10.635C22.3508 13.2325 21.3943 15.615 19.8092 17.4613L25.8897 23.3988C26.0767 23.5812 26.1701 23.8213 26.1701 24.0625C26.1701 24.7962 25.4826 25 25.2099 25C24.964 25 24.7182 24.9088 24.53 24.725L18.4494 18.7887ZM11.4573 1.87625C6.50475 1.87625 2.48563 5.80125 2.48563 10.635C2.48563 15.4688 6.50475 19.3937 11.4573 19.3937C16.4072 19.3937 20.4289 15.4688 20.4289 10.635C20.4289 5.80125 16.4072 1.87625 11.4573 1.87625Z" fill="white"/>
</svg>
