<svg width="35" height="28" viewBox="0 0 35 28" fill="none" xmlns="http://www.w3.org/2000/svg">
<path id="Vector" d="M35 3.31481C33.7123 3.87756 32.3283 4.25656 30.8758 4.4274C32.359 3.55312 33.4979 2.16776 34.0331 0.516817C32.6463 1.3265 31.1092 1.91509 29.4729 2.23236C28.1648 0.858491 26.2967 0 24.2317 0C19.5956 0 16.189 4.258 17.236 8.67822C11.27 8.38392 5.97917 5.57014 2.43688 1.29348C0.555625 4.47047 1.46125 8.62654 4.65792 10.7311C3.4825 10.6938 2.37417 10.3765 1.40729 9.8468C1.32854 13.1214 3.71292 16.185 7.16625 16.8669C6.15563 17.1368 5.04875 17.2 3.92292 16.9875C4.83583 19.7955 7.48708 21.8384 10.6313 21.8958C7.6125 24.2258 3.80917 25.2666 0 24.8244C3.17771 26.83 6.95333 28 11.0075 28C24.3396 28 31.8719 16.9157 31.4169 6.97416C32.8198 5.97641 34.0375 4.73175 35 3.31481Z" fill="white"/>
</svg>
